# Blender v2.82 (sub 7) OBJ File: ''
# www.blender.org
mtllib Coin.mtl
o Coin
v -0.000040 1.874067 0.000085
v 0.928346 -0.075361 -0.001178
v 0.692222 -0.075361 -0.692841
v -0.927227 -0.075361 -0.001178
v -0.691104 -0.075361 -0.692841
v -0.691104 -0.075361 0.690485
v 0.000559 -0.075361 0.926609
v 0.692222 -0.075361 0.690485
v 0.000559 -0.075361 -0.928964
v 0.001325 -2.079047 -0.002792
vt 0.011628 0.254535
vt 0.580850 0.415649
vt 0.684011 0.247126
vt 0.418889 0.681111
vt 0.499131 0.551346
vt 0.309991 0.860420
vt 0.418889 0.681111
vt 0.499131 0.551346
vt 0.580850 0.415649
vt 0.984529 0.852222
vn 0.8627 0.4111 -0.2945
vn -0.8629 0.4106 -0.2946
vn -0.2947 0.4101 0.8631
vn 0.2946 0.4103 0.8631
vn 0.8629 0.4107 0.2946
vn -0.2945 0.4111 -0.8627
vn -0.8630 0.4103 0.2946
vn 0.2945 0.4112 -0.8627
vn 0.2958 -0.4019 0.8666
vn -0.2958 -0.4020 0.8665
vn -0.8666 -0.4018 0.2958
vn -0.8668 -0.4014 -0.2959
vn -0.2960 -0.4009 -0.8670
vn 0.2960 -0.4007 -0.8671
vn 0.8670 -0.4009 -0.2960
vn 0.8668 -0.4013 0.2959
usemtl defaultMat.002
s off
f 1/1/1 2/2/1 3/3/1
f 4/4/2 1/1/2 5/5/2
f 6/6/3 7/7/3 1/1/3
f 7/7/4 8/8/4 1/1/4
f 1/1/5 8/8/5 2/2/5
f 5/5/6 1/1/6 9/9/6
f 1/1/7 4/4/7 6/6/7
f 3/3/8 9/9/8 1/1/8
f 8/8/9 7/7/9 10/10/9
f 7/7/10 6/6/10 10/10/10
f 6/6/11 4/4/11 10/10/11
f 4/4/12 5/5/12 10/10/12
f 5/5/13 9/9/13 10/10/13
f 9/9/14 3/3/14 10/10/14
f 3/3/15 2/2/15 10/10/15
f 2/2/16 8/8/16 10/10/16
