# Blender v2.82 (sub 7) OBJ File: ''
# www.blender.org
mtllib Rock.mtl
o Cube
v 0.886954 0.564051 -0.891128
v 0.726159 -0.688682 -0.556904
v 0.770580 0.050075 0.608133
v -0.535197 0.134428 -0.079803
v -0.720237 -0.680306 -0.285199
v -0.424600 -0.698043 0.497630
v 1.608087 0.911748 -0.470002
v 0.275941 -0.160948 0.539032
v 1.000000 -1.000000 0.000000
vt 0.375000 0.125000
vt 0.625000 0.125000
vt 0.625000 0.250000
vt 0.375000 0.250000
vt 0.625000 0.500000
vt 0.375000 0.500000
vt 0.625000 0.625000
vt 0.375000 0.625000
vt 0.125000 0.500000
vt 0.125000 0.625000
vt 0.875000 0.500000
vt 0.875000 0.625000
vt 0.000000 0.000000
vn -0.6985 0.3429 0.6281
vn -0.3533 0.0008 -0.9355
vn 0.6675 -0.3316 -0.6667
vn -0.1519 -0.9729 -0.1744
vn -0.2642 0.9011 0.3439
vn 0.1791 -0.4177 0.8908
vn -0.4084 0.8410 0.3549
vn 0.8310 -0.1315 0.5405
usemtl Material
s off
f 6/1/1 8/2/1 4/3/1 5/4/1
f 5/4/2 4/3/2 1/5/2 2/6/2
f 2/6/3 1/5/3 7/7/3 9/8/3
f 5/9/4 2/6/4 9/8/4 6/10/4
f 1/5/5 4/11/5 8/12/5 7/7/5
f 6/1/6 9/8/6 3/13/6 8/2/6
f 7/7/7 8/12/7 3/13/7
f 3/13/8 9/8/8 7/7/8
